<?xml version="1.0" encoding="utf-8"?>
<!-- Generator: Adobe Illustrator 27.4.0, SVG Export Plug-In . SVG Version: 6.00 Build 0)  -->
<svg version="1.1" id="Layer_1" xmlns="http://www.w3.org/2000/svg" xmlns:xlink="http://www.w3.org/1999/xlink" x="0px" y="0px"
	 viewBox="0 0 30 30" style="enable-background:new 0 0 30 30;" xml:space="preserve">
<style type="text/css">
	.st0{fill:#FF6600;}
</style>
<g id="Group_23" transform="translate(-1664 -21)">
	<path id="Path_44" class="st0" d="M1691.61121,46.91801c0,0.58405,0.01514,1.17393,0,1.76032
		c0.07214,0.67547-0.41699,1.28153-1.09241,1.35367c-0.0675,0.0072-0.13538,0.00881-0.203,0.00483
		c-0.90759,0.01869-1.31995-0.50695-1.38306-1.38887c-0.00684-1.39627-0.13867-2.78913-0.39368-4.16192
		c-0.45203-1.74898-2.07556-2.93592-3.87927-2.83614c-3.75305-0.09345-7.51086-0.06541-11.26624-0.01519
		c-2.3512,0.02299-4.25745,1.91259-4.3009,4.26355c-0.03735,0.89827-0.00708,1.79887-0.021,2.69947
		c-0.01526,0.87023-0.41821,1.43443-1.33289,1.43909c-0.67786,0.06774-1.28223-0.42686-1.34998-1.10474
		c-0.0105-0.10518-0.00745-0.21127,0.00903-0.31567c0.03503-2.09089-0.31653-4.22617,0.86902-6.17222
		c1.18347-2.18221,3.47498-3.53283,5.9574-3.5113c3.67712-0.03504,7.35889,0.11681,11.03027-0.04556
		c3.89124-0.17535,7.18799,2.83701,7.36328,6.72831c0.01086,0.23974,0.0094,0.47987-0.00427,0.71947
		c-0.01636,0.1939,0,0.39131,0,0.58405L1691.61121,46.91801z"/>
	<path id="Path_45" class="st0" d="M1672.02576,28.9819c-0.0271-3.85257,3.0741-6.99766,6.92664-7.02475
		c3.85254-0.02709,6.99768,3.07407,7.02466,6.92665c0.00049,0.05567,0.00012,0.11135-0.00073,0.16702
		c-0.06519,3.85211-3.24072,6.92209-7.09277,6.85699C1675.09644,35.84381,1672.05225,32.76947,1672.02576,28.9819
		 M1683.27209,29.0368c0.0105-2.35919-1.89355-4.28013-4.25281-4.29056c-2.31201-0.01021-4.21252,1.8209-4.28821,4.1317
		c-0.07739,2.35794,1.77148,4.3321,4.12939,4.40942c2.35791,0.07731,4.33215-1.7715,4.40942-4.12945
		C1683.27124,29.11755,1683.27197,29.07718,1683.27209,29.0368"/>
</g>
</svg>
