<svg width="45" height="45" viewBox="0 0 45 45" fill="none" xmlns="http://www.w3.org/2000/svg">
<circle cx="22.5" cy="22.5" r="22.5" fill="#FF6600"/>
<path d="M30.0002 23.495H19.0002C18.8949 23.491 18.792 23.4622 18.6999 23.4109C18.6079 23.3596 18.5292 23.2874 18.4702 23.2C18.3271 22.9903 18.2505 22.7424 18.2505 22.4885C18.2505 22.2346 18.3271 21.9867 18.4702 21.777C18.5292 21.6896 18.6079 21.6173 18.6999 21.5661C18.792 21.5148 18.8949 21.486 19.0002 21.482H30.0002C30.1056 21.4859 30.2085 21.5147 30.3006 21.566C30.3927 21.6172 30.4714 21.6895 30.5302 21.777C30.6734 21.9867 30.7499 22.2346 30.7499 22.4885C30.7499 22.7424 30.6734 22.9903 30.5302 23.2C30.4714 23.2874 30.3927 23.3597 30.3006 23.411C30.2085 23.4623 30.1056 23.4911 30.0002 23.495Z" fill="white"/>
<path d="M30.0002 18.995H19.0002C18.8952 18.9912 18.7925 18.9629 18.7004 18.9121C18.6084 18.8614 18.5295 18.7898 18.4702 18.703C18.3271 18.4956 18.2504 18.2495 18.2504 17.9975C18.2504 17.7455 18.3271 17.4994 18.4702 17.292C18.5295 17.2052 18.6084 17.1336 18.7004 17.0829C18.7925 17.0321 18.8952 17.0038 19.0002 17H30.0002C30.1053 17.0038 30.2079 17.0321 30.3 17.0829C30.3921 17.1336 30.4709 17.2052 30.5302 17.292C30.6734 17.4994 30.7501 17.7455 30.7501 17.9975C30.7501 18.2495 30.6734 18.4956 30.5302 18.703C30.4709 18.7898 30.3921 18.8614 30.3 18.9121C30.2079 18.9629 30.1053 18.9912 30.0002 18.995Z" fill="white"/>
<path d="M30.0002 27.995H19.0002C18.8951 27.9911 18.7924 27.9626 18.7003 27.9117C18.6082 27.8608 18.5294 27.789 18.4702 27.702C18.3272 27.4942 18.2506 27.2478 18.2506 26.9955C18.2506 26.7432 18.3272 26.4968 18.4702 26.289C18.5295 26.2022 18.6084 26.1306 18.7005 26.0799C18.7925 26.0292 18.8952 26.0008 19.0002 25.997H30.0002C30.1054 26.0009 30.2081 26.0294 30.3002 26.0803C30.3922 26.1312 30.4711 26.203 30.5302 26.29C30.6733 26.4978 30.7499 26.7442 30.7499 26.9965C30.7499 27.2488 30.6733 27.4952 30.5302 27.703C30.4709 27.7898 30.3921 27.8614 30.3 27.9121C30.208 27.9629 30.1053 27.9912 30.0002 27.995Z" fill="white"/>
<path d="M16.0002 18.995C15.8702 18.9966 15.7411 18.9728 15.6202 18.925C15.5007 18.867 15.3897 18.793 15.2902 18.705C15.1975 18.6116 15.1242 18.5007 15.0745 18.3789C15.0247 18.2571 14.9995 18.1266 15.0002 17.995C15.0039 17.7302 15.1075 17.4766 15.2902 17.285C15.3841 17.1924 15.4966 17.1208 15.6202 17.075C15.8031 17.0027 16.0027 16.9841 16.1958 17.0213C16.3889 17.0585 16.5673 17.15 16.7102 17.285C16.893 17.4766 16.9965 17.7302 17.0002 17.995C17.001 18.1266 16.9758 18.2571 16.926 18.3789C16.8762 18.5007 16.8029 18.6116 16.7102 18.705C16.6107 18.793 16.4997 18.867 16.3802 18.925C16.2593 18.9728 16.1302 18.9966 16.0002 18.995Z" fill="white"/>
<path d="M16.0002 23.495C15.8696 23.4934 15.7405 23.4662 15.6202 23.415C15.4991 23.3643 15.3875 23.2933 15.2902 23.205C15.1975 23.1115 15.1242 23.0007 15.0745 22.8789C15.0247 22.7571 14.9995 22.6266 15.0002 22.495C15.0039 22.2302 15.1075 21.9766 15.2902 21.785C15.3874 21.6966 15.499 21.6256 15.6202 21.575C15.8013 21.4911 16.0032 21.4632 16.2002 21.495L16.3802 21.555L16.5602 21.645C16.6126 21.6819 16.6627 21.722 16.7102 21.765C16.8977 21.9616 17.0016 22.2233 17.0002 22.495C17.0002 22.7602 16.8949 23.0146 16.7073 23.2021C16.5198 23.3896 16.2654 23.495 16.0002 23.495Z" fill="white"/>
<path d="M16.0002 27.995C15.8702 27.9966 15.7411 27.9728 15.6202 27.925C15.5007 27.867 15.3897 27.793 15.2902 27.705C15.2019 27.6078 15.1309 27.4962 15.0802 27.375C15.0273 27.2553 15 27.1259 15 26.995C15 26.8641 15.0273 26.7347 15.0802 26.615C15.1309 26.4938 15.2019 26.3822 15.2902 26.285C15.4822 26.1037 15.7362 26.0027 16.0002 26.0027C16.2643 26.0027 16.5183 26.1037 16.7102 26.285C16.7986 26.3822 16.8696 26.4938 16.9202 26.615C16.9731 26.7347 17.0005 26.8641 17.0005 26.995C17.0005 27.1259 16.9731 27.2553 16.9202 27.375C16.8696 27.4962 16.7986 27.6078 16.7102 27.705C16.6168 27.7977 16.506 27.871 16.3841 27.9208C16.2623 27.9705 16.1318 27.9957 16.0002 27.995Z" fill="white"/>
</svg>
