<?xml version="1.0" encoding="utf-8"?>
<!-- Generator: Adobe Illustrator 27.4.0, SVG Export Plug-In . SVG Version: 6.00 Build 0)  -->
<svg version="1.1" id="Layer_1" xmlns="http://www.w3.org/2000/svg" xmlns:xlink="http://www.w3.org/1999/xlink" x="0px" y="0px"
	 viewBox="0 0 30 30" style="enable-background:new 0 0 30 30;" xml:space="preserve">
<style type="text/css">
	.st0{fill:#FF6600;}
</style>
<g>
	<path class="st0" d="M22.79485,21.66359H11.05336c-1.90641,0-3.50898-1.36647-3.81036-3.24907L5.05984,4.77278H2.66769
		c-0.63848,0-1.15625-0.51777-1.15625-1.15625s0.51777-1.15625,1.15625-1.15625h2.80193c0.90619,0,1.66703,0.64957,1.8091,1.54426
		l0.50996,3.18543h18.192c0.17902,0,0.36051,0.01971,0.53871,0.05872c1.35416,0.30056,2.20902,1.6424,1.90929,2.99245
		l-1.86658,8.40086C26.16669,20.42111,24.6175,21.66359,22.79485,21.66359z M8.15863,9.50247l1.36812,8.54662
		c0.12072,0.75427,0.76248,1.30201,1.52661,1.30201h11.74149c0.73046,0,1.35128-0.49806,1.50977-1.21086l1.86658-8.40045
		c0.02341-0.1047-0.04352-0.20941-0.14864-0.23281c-0.01273-0.00246-0.02792-0.00452-0.04188-0.00452H8.15863z M5.46962,4.77278
		h0.00411H5.46962z"/>
	<g>
		<circle id="Oval_00000131361848083398983850000010358569390635828121_" class="st0" cx="13.25207" cy="25.58088" r="1.95883"/>
		<circle id="Oval_00000122690611387888549900000003184511466874182573_" class="st0" cx="20.27253" cy="25.58088" r="1.95883"/>
	</g>
</g>
</svg>
