<?xml version="1.0" encoding="utf-8"?>
<!-- Generator: Adobe Illustrator 24.0.1, SVG Export Plug-In . SVG Version: 6.00 Build 0)  -->
<svg version="1.1" id="Layer_1" xmlns="http://www.w3.org/2000/svg" xmlns:xlink="http://www.w3.org/1999/xlink" x="0px" y="0px"
	 width="188.6px" height="43.3px" viewBox="0 0 188.6 43.3" style="enable-background:new 0 0 188.6 43.3;" xml:space="preserve">
<style type="text/css">
	.st0{fill:#FFFFFF;}
</style>
<g id="bb-logo" transform="translate(-0.558 -1.143)">
	<g id="Group_3" transform="translate(0.558 1.143)">
		<path id="Path_20" class="st0" d="M66,33.7l5.7,8.7c0-0.3,0-0.4,0-0.6c0-6.9,0-13.8,0-20.7c0-0.6,0-0.6,0.6-0.6
			c4.6,0,9.2,0,13.8,0c0.3,0,0.5,0,0.5,0.4c0,1.7,0,3.5,0,5.2c0,0.1,0,0.3,0,0.4h-6.9v2.1h0.6c1.8,0,3.6,0,5.4,0
			c0.2,0,0.4,0,0.4,0.3c0,1.7,0,3.4,0,5.2c0,0.1,0,0.1,0,0.2h-6.3v2.3h0.6c2.1,0,4.1,0,6.2,0c0.3,0,0.4,0.1,0.4,0.4
			c0,1.7,0,3.4,0,5.2c0,0.3-0.1,0.5-0.5,0.5c-7.7,0-15.3,0-23,0c-0.2,0-0.5-0.1-0.6-0.4c-1.1-2.1-2.2-4.2-3.3-6.4
			c-0.1-0.1-0.2-0.3-0.3-0.4v7.1c-0.2,0-0.3,0-0.4,0c-2.4,0-4.7,0-7.1,0c-0.4,0-0.4-0.2-0.4-0.5c0-3.5,0-7,0-10.5
			c0-3.6,0-7.2,0-10.8c0-0.4,0.1-0.5,0.5-0.5c3.2,0,6.4,0,9.6,0c1.4,0,2.8,0.2,4.1,0.6c2.7,0.8,4.6,3.2,4.7,6c0.1,1,0,2.1-0.3,3.1
			c-0.4,1.8-1.9,3.1-3.6,3.4C66.2,33.6,66.1,33.7,66,33.7z M59.1,30.5c0.5,0,1,0,1.5,0c0.2,0,0.3,0,0.5-0.1c0.9-0.1,1.5-0.9,1.5-1.8
			c0.1-1.2-0.3-2-1.3-2.2c-0.7-0.1-1.5-0.2-2.2-0.2L59.1,30.5z"/>
		<path id="Path_21" class="st0" d="M0,20.5h0.5c2.4,0,4.7,0,7.1,0c0.3,0,0.5,0.1,0.5,0.4c0.6,3.4,1.2,6.8,1.8,10.3
			c0.2,1,0.2,2,0.3,3c0,0.1,0,0.3,0.1,0.4c0-0.1,0.1-0.1,0.1-0.2c0.2-2.3,0.6-4.6,1.2-6.9c0.4-2.2,0.9-4.4,1.3-6.6
			c0.1-0.3,0.2-0.5,0.5-0.5c1.6,0,3.2,0,4.8,0c0.3,0,0.4,0,0.5,0.4c0.8,3.9,1.6,7.8,2.3,11.7c0.1,0.7,0.2,1.3,0.3,2.1
			c0.1-0.2,0.1-0.2,0.1-0.3c0.2-2.6,0.6-5.3,1.1-7.9c0.3-1.9,0.7-3.8,1-5.7c0-0.3,0.1-0.4,0.4-0.4c2.5,0,5,0,7.4,0
			c0.1,0,0.2,0,0.2,0c0,0.1-0.1,0.3-0.1,0.4c-2.1,7.1-4.2,14.2-6.2,21.3c-0.1,0.4-0.2,0.5-0.6,0.5c-2,0-4.1,0-6.1,0
			c-0.3,0-0.4-0.1-0.4-0.3c-0.7-3.1-1.3-6.1-2-9.2c-0.1-0.4-0.1-0.8-0.2-1.2c0-0.2-0.1-0.3-0.2-0.5c-0.1,0.1-0.1,0.1-0.1,0.2
			c-0.7,3.4-1.4,6.8-2.1,10.2c-0.2,0.8-0.2,0.8-1,0.8c-1.9,0-3.8,0-5.7,0c-0.3,0.1-0.6-0.1-0.6-0.4c0,0,0,0,0,0
			c-1.5-5.3-3.1-10.6-4.6-15.9c-0.5-1.8-1-3.5-1.5-5.3C0.1,20.9,0.1,20.7,0,20.5z"/>
		<path id="Path_22" class="st0" d="M68.9,1.1c-1,1.7-2.1,3.3-3.1,5c-0.8,1.3-1.7,2.7-2.5,4c-0.2,0.3-0.3,0.7-0.3,1
			c0,2.3,0,4.6,0,6.8v0.5h-0.5c-1.9,0-3.8,0-5.7,0c-0.3,0-0.4-0.2-0.4-0.4c0-2.4,0-4.7,0-7.1c0-0.3-0.1-0.6-0.2-0.8
			c-1.8-3.1-3.7-6.1-5.6-9.2c-0.1-0.1-0.1-0.2-0.2-0.4c0.2,0,0.4,0,0.5,0c2.1,0,4.2,0,6.4,0c0.4,0,0.7,0.2,0.8,0.6
			c0.6,1.4,1.2,2.8,1.8,4.3c0.2-0.4,0.3-0.9,0.5-1.3c0.4-1.1,0.9-2.1,1.3-3.2c0.1-0.2,0.3-0.4,0.5-0.3c5.3,0,10.5,0,15.8,0
			c1.2,0,2.4,0.3,3.5,0.9c1.5,0.9,2.2,2.6,2,4.3c0,1.6-1.1,3-2.7,3.4c0.4,0.1,0.6,0.2,0.9,0.3c1.4,0.4,2.4,1.7,2.6,3.1
			c0.3,2.7-0.7,4.8-3.5,5.6c-0.6,0.2-1.3,0.3-2,0.3c-1.8,0.1-3.7,0-5.6,0.1c-1.3,0-2.6,0-3.8,0c-0.4,0-0.4-0.1-0.4-0.4
			c0-0.7,0-1.5,0-2.2c0-4.3,0-8.6,0-12.9C69,2.3,69,1.7,68.9,1.1L68.9,1.1z M75.2,14c0.7,0,1.4-0.1,2.1-0.3c0.6-0.1,1-0.7,0.9-1.3
			c0-0.6-0.4-1.1-1-1.2c-0.7-0.1-1.4-0.1-2.1-0.2C75.2,12,75.2,13,75.2,14z M75.2,7.2c0.6,0,1.1-0.1,1.7-0.2
			c0.5-0.1,0.8-0.6,0.8-1.1c0-0.6-0.2-1-0.7-1.1c-0.6-0.1-1.1-0.2-1.7-0.2C75.2,5.6,75.2,6.4,75.2,7.2L75.2,7.2z"/>
		<path id="Path_23" class="st0" d="M121.1,43.3c-4.3,0-8.2-2.5-10-6.3c-3.4-6.9,0.2-15.4,8.6-16.8c3.6-0.7,7.4,0.3,10.1,2.8
			c2.8,2.4,4.2,6.1,3.7,9.8C133.1,38.8,128,43.3,121.1,43.3z M125.5,31.8c-0.1-0.7-0.2-1.2-0.3-1.8c-0.4-1.5-1.7-2.5-3.2-2.6
			c-1.6-0.2-3.1,0.7-3.6,2.2c-0.5,1.3-0.5,2.7,0,3.9c0.5,1.3,1.8,2.2,3.2,2.2c1.5,0.2,2.8-0.7,3.4-2
			C125.2,33.1,125.4,32.5,125.5,31.8z"/>
		<path id="Path_24" class="st0" d="M96.2,27.9h3.7c1.1,0,1.1,0,1.1-1.1c0-1.9,0-3.9,0-5.8c0-0.4,0.1-0.5,0.5-0.5c2.4,0,4.7,0,7.1,0
			c0.3,0,0.5,0.1,0.5,0.4c0,7,0,14.1,0,21.1c0,0.2,0,0.4,0,0.6h-0.5c-2.4,0-4.7,0-7.1,0c-0.4,0-0.4-0.2-0.4-0.4c0-2.3,0-4.6,0-6.9
			c0-0.1,0-0.3,0-0.4h-4.8v7.8h-0.6c-2.4,0-4.7,0-7.1,0c-0.5,0-0.4-0.3-0.4-0.5c0-6.7,0-13.5,0-20.2c0-0.4,0-0.7,0-1.1
			s0.1-0.4,0.4-0.4c2.4,0,4.7,0,7.1,0c0.4,0,0.5,0.1,0.5,0.5c0,2.2,0,4.3,0,6.5C96.2,27.6,96.2,27.7,96.2,27.9z"/>
		<path id="Path_25" class="st0" d="M134.3,27.7c0-2.2,0-4.5,0-6.7c0-0.4,0.1-0.5,0.5-0.5c2.4,0,4.7,0,7.1,0c0.4,0,0.5,0.1,0.5,0.5
			c0,3.9,0,7.9,0,11.8c0,0.7,0.1,1.4,0.2,2.1c0.4,1.1,1.5,1.6,2.6,1.3c0.6-0.2,1-0.7,1.3-1.2c0.2-0.8,0.3-1.6,0.3-2.4
			c0-3.8,0-7.6,0-11.4c0-0.6,0-0.6,0.6-0.6c2.3,0,4.6,0,7,0c0.3,0,0.5,0,0.5,0.4c0,4.1,0,8.3,0,12.4c0,1.2-0.1,2.3-0.4,3.5
			c-0.5,2.4-2.2,4.4-4.5,5.4c-3.4,1.6-7.3,1.6-10.7-0.1c-2.8-1.2-4.5-3.9-4.6-6.9C134.3,32.7,134.3,30.2,134.3,27.7L134.3,27.7z"/>
		<path id="Path_26" class="st0" d="M26.4,42.7c0-0.2,0.1-0.3,0.1-0.4c2.5-7.1,5.1-14.2,7.6-21.3c0.1-0.3,0.3-0.5,0.6-0.4
			c2.7,0,5.4,0,8,0c0.3,0,0.5,0.1,0.6,0.4c2.5,7.1,4.9,14.2,7.4,21.3c0,0.1,0.1,0.3,0.1,0.5h-0.5c-2.6,0-5.1,0-7.7,0
			c-0.3,0-0.4-0.1-0.4-0.3c-0.2-0.7-0.4-1.4-0.5-2.1c0-0.2-0.2-0.4-0.4-0.4c0,0,0,0,0,0c-1.8,0-3.5,0-5.3,0c-0.3,0-0.4,0.1-0.4,0.3
			c-0.2,0.7-0.3,1.4-0.5,2.1c-0.1,0.2-0.1,0.3-0.4,0.3c-2.7,0-5.3,0-8,0C26.6,42.7,26.5,42.7,26.4,42.7z M38.6,27.3
			c-0.3,2.5-0.9,4.9-1.6,7.3h3.2C39.5,32.2,38.9,29.8,38.6,27.3z"/>
		<path id="Path_27" class="st0" d="M157,34.6c0.5,0.3,0.9,0.6,1.3,0.8c1.2,0.8,2.7,1.3,4.1,1.4c0.4,0,0.8-0.1,1.2-0.2
			c0.4-0.1,0.6-0.5,0.6-0.8c0-0.4-0.2-0.7-0.5-0.8c-0.7-0.3-1.4-0.5-2.1-0.7c-1-0.3-2-0.6-3-1c-2.1-1-3.3-3.3-3-5.6
			c0.1-3.8,3-6.9,6.7-7.4c3.4-0.6,6.9-0.1,9.9,1.7c0.1,0,0.1,0.1,0.2,0.1l-2.4,5.8c-0.5-0.3-0.9-0.6-1.4-0.8c-1.1-0.7-2.5-1-3.8-0.8
			c-0.2,0-0.5,0.1-0.7,0.2c-0.4,0.2-0.6,0.6-0.4,1c0.1,0.2,0.2,0.3,0.3,0.4c0.8,0.4,1.6,0.7,2.4,0.9c1.2,0.2,2.3,0.6,3.4,1.1
			c1.7,1,2.7,2.8,2.8,4.8c0.2,4-2.5,7.5-6.3,8.3c-3,0.7-6.2,0.5-9.1-0.7c-0.9-0.3-1.7-0.8-2.6-1.2c-0.2-0.1-0.3-0.2-0.2-0.5
			c0.8-1.9,1.6-3.8,2.4-5.7C156.9,34.7,157,34.7,157,34.6z"/>
		<path id="Path_28" class="st0" d="M181.5,36.7h7.1v6c-0.2,0-0.3,0-0.4,0c-4.7,0-9.5,0-14.2,0c-0.3,0-0.4-0.2-0.4-0.4
			c0-2.3,0-4.6,0-6.9c0-4.8,0-9.5,0-14.3c0-0.6,0-0.6,0.6-0.6h13.7c0.6,0,0.6,0,0.6,0.5c0,1.7,0,3.3,0,4.9c0,0.2,0,0.3,0,0.6h-6.9
			v2.1h0.5c1.8,0,3.6,0,5.4,0c0.2,0,0.4,0,0.4,0.3c0,1.7,0,3.4,0,5.2c0,0.1,0,0.1,0,0.2h-6.3C181.5,35.1,181.5,35.9,181.5,36.7z"/>
		<path id="Path_29" class="st0" d="M156.3,18.4h-0.4c-1.8,0-3.6,0-5.4,0c-0.4,0-0.4-0.3-0.4-0.5c0-5.5,0-11,0-16.5c0-1,0-1,1-1
			c1.6,0,3.3,0,4.9,0c0.3,0,0.7,0.2,0.8,0.5c1.7,2.8,3.4,5.7,5.1,8.5c0,0,0,0.1,0.1,0.1c0-0.9-0.1-1.7-0.1-2.6c0-2.1,0-4.1,0-6.2
			c0-0.3,0.1-0.4,0.4-0.4c1.8,0,3.7,0,5.5,0c0.3,0,0.4,0.1,0.4,0.4c0,5.7,0,11.4,0,17.1c0,0.1,0,0.3,0,0.4c-0.2,0-0.3,0-0.5,0
			c-1.9,0-3.7,0-5.6,0c-0.3,0-0.5-0.1-0.6-0.3c-1.7-2.8-3.3-5.6-5-8.4c-0.1-0.1-0.1-0.2-0.2-0.3L156.3,18.4z"/>
		<path id="Path_30" class="st0" d="M35.3,9.5c0,5-3.9,9.2-9,9.4c-3.1,0.3-6.1-1-8.2-3.3c-1.5-1.7-2.2-3.9-2.2-6.1
			C16,4.2,20.1,0,25.3,0c0.1,0,0.3,0,0.4,0c3.1-0.1,6.1,1.4,7.9,3.9C34.8,5.5,35.4,7.5,35.3,9.5z M28.7,9.5L28.7,9.5
			c0-0.5-0.1-1-0.3-1.5c-0.3-1.1-1.2-1.8-2.3-1.9c-1.1-0.2-2.3,0.3-2.9,1.2c-0.5,0.8-0.7,1.8-0.5,2.8c0.1,1.5,1.4,2.7,2.9,2.7
			c1.5,0.1,2.9-1,3.1-2.5C28.7,10,28.7,9.7,28.7,9.5L28.7,9.5z"/>
		<path id="Path_31" class="st0" d="M187.1,4.7c-0.2,0.1-0.3,0.1-0.4,0.2c-1.7,0.6-3.4,1.3-5.2,1.9c-0.2,0.1-0.4,0-0.5-0.1
			c0,0,0,0,0,0c-0.9-1.3-2.7-1.7-4.1-0.7c-0.5,0.3-0.9,0.8-1.1,1.4c-0.6,1.4-0.6,2.9,0,4.3c0.7,1.6,2.6,2.3,4.2,1.6c0,0,0,0,0,0
			c0.5-0.2,0.8-0.7,0.9-1.2c-0.8,0-1.6,0-2.4,0c-0.3,0-0.5-0.1-0.5-0.4c0-1.1,0-2.3,0-3.4c0-0.3,0.1-0.5,0.4-0.5c3.1,0,6.1,0,9.2,0
			c0.3,0,0.4,0.1,0.4,0.4c0,1.1-0.1,2.1-0.2,3.2c-0.7,4-3.9,7-7.9,7.5c-2,0.3-4.1,0-6-0.8c-3.4-1.5-5.4-4.9-5.3-8.6
			c0-5.9,5-9.7,10.5-9.3c2.3,0.1,4.6,1.1,6.2,2.8C186.2,3.4,186.6,4,187.1,4.7z"/>
		<path id="Path_32" class="st0" d="M124.4,9.4c0-2.8,0-5.6,0-8.4c0-0.6,0-0.6,0.6-0.6c2.5,0,5,0,7.6,0.1c2.2,0,4.4,0.8,6.1,2.1
			c4.1,3.2,4.4,10.8-0.8,14c-1.5,0.9-3.2,1.5-5,1.5c-2.5,0.1-5,0.1-7.5,0.1c-1,0-1,0-1-1C124.4,14.7,124.4,12.1,124.4,9.4z M131,6v7
			c1.4-0.1,2.8-0.1,3.6-1.4c0.8-1.2,0.8-2.8,0.1-4C133.9,6.1,132.4,6,131,6L131,6z"/>
		<path id="Path_33" class="st0" d="M36.2,18.4v-0.5c0-5.6,0-11.3,0-16.9c0-0.6,0-0.6,0.6-0.6c2.5,0,5,0,7.6,0.1c2.2,0,4.2,0.8,6,2
			c4.3,3.2,4.5,10.8-0.7,14.1c-1.5,0.9-3.2,1.5-5,1.5c-2.5,0.1-5.1,0.1-7.6,0.1C36.7,18.4,36.5,18.4,36.2,18.4z M42.7,12.9
			c1.5-0.2,3-0.1,3.8-1.7c0.7-1.3,0.6-2.9-0.3-4.1C45.3,6,44,6,42.7,6L42.7,12.9z"/>
		<path id="Path_34" class="st0" d="M12.2,9.1c0.2,0.1,0.5,0.1,0.7,0.2c1.6,0.5,2.7,2,2.7,3.7c0.1,2.8-1.3,4.6-4.2,5.1
			c-0.8,0.1-1.6,0.2-2.4,0.2c-2.8,0-5.6,0-8.4,0c-0.4,0-0.4-0.2-0.4-0.4c0-2.6,0-5.2,0-7.9c0-3.1,0-6.1,0-9.2c0-0.4,0.1-0.5,0.5-0.5
			c2.8,0,5.7,0,8.5,0c1.1,0,2.2,0.2,3.2,0.8c2.1,1.3,2.9,3.9,1.8,6.2C13.9,8.2,13.1,8.8,12.2,9.1z M6.3,11c0,0.9,0,1.8,0,2.6
			c0,0.1,0,0.2,0,0.3c0.7,0,1.4-0.1,2-0.2c0.6-0.1,1.1-0.7,1-1.3c0-0.6-0.4-1.2-1-1.2C7.7,11.1,7.1,11.1,6.3,11z M6.4,4.7v2.6
			c0.5,0,1.1-0.1,1.6-0.2C8.5,7,8.8,6.5,8.8,6c0.1-0.5-0.3-1-0.8-1.1C7.4,4.7,6.9,4.7,6.4,4.7z"/>
		<path id="Path_35" class="st0" d="M101.6,6.3c0,1.8,0,3.5,0,5.3c0.1,1.8-0.6,3.6-1.8,5c-0.8,0.8-1.7,1.4-2.7,1.8
			c-2.5,0.9-5.2,0.9-7.6-0.1c-2.5-0.9-4.2-3.2-4.3-5.9c0-0.7-0.1-1.4-0.1-2.1c0-3.1,0-6.2,0-9.3c0-0.4,0.1-0.5,0.5-0.5
			c1.9,0,3.7,0,5.6,0c0.4,0,0.5,0.1,0.5,0.5c0,3.2,0,6.5,0,9.7c0,0.5,0.1,1,0.2,1.5c0.1,0.7,0.8,1.1,1.5,1.1c0.9,0,1.5-0.3,1.7-1
			c0.2-0.6,0.2-1.2,0.2-1.8c0-3.1,0-6.3,0-9.4c0-0.6,0-0.6,0.6-0.6c1.8,0,3.6,0,5.5,0c0.4,0,0.5,0.1,0.5,0.5
			C101.6,2.7,101.6,4.5,101.6,6.3L101.6,6.3z"/>
		<path id="Path_36" class="st0" d="M117.5,12.5h1.6c1.4,0,2.8,0,4.3,0c0.2,0,0.4,0,0.4,0.3c0,1.8,0,3.6,0,5.4c0,0.1,0,0.1,0,0.1
			h-0.5c-4,0-8,0-12,0c-0.3,0-0.4-0.1-0.4-0.4c0-1.6,0-3.1,0-4.7c0-4.1,0-8.2,0-12.3c0-0.6,0-0.6,0.6-0.6h5.4c0.6,0,0.5,0,0.5,0.5
			c0,3.8,0,7.5,0,11.3C117.4,12.3,117.5,12.4,117.5,12.5z"/>
		<path id="Path_37" class="st0" d="M148.9,18.4c-0.7,0-1.4,0-2,0c-1.4,0-2.8,0-4.2,0c-0.4,0-0.4-0.2-0.4-0.5c0-3.7,0-7.4,0-11.1
			c0-1.9,0-3.9,0-5.8c0-0.4,0.1-0.5,0.5-0.5c1.9,0,3.8,0,5.6,0c0.4,0,0.5,0.1,0.5,0.5c0,5.6,0,11.3,0,16.9
			C148.9,18,148.9,18.1,148.9,18.4z"/>
		<path id="Path_38" class="st0" d="M109.5,18.4H109c-1.9,0-3.8,0-5.7,0c-0.4,0-0.4-0.2-0.4-0.5c0-2.5,0-5,0-7.5c0-3.2,0-6.3,0-9.5
			V0.4c0.2,0,0.3,0,0.4,0c1.9,0,3.9,0,5.9,0c0.3,0,0.4,0.1,0.4,0.4c0,4.7,0,9.3,0,14C109.5,16,109.5,17.2,109.5,18.4z"/>
	</g>
</g>
</svg>
