<?xml version="1.0" encoding="utf-8"?>
<!-- Generator: Adobe Illustrator 27.4.0, SVG Export Plug-In . SVG Version: 6.00 Build 0)  -->
<svg version="1.1" id="Layer_1" xmlns="http://www.w3.org/2000/svg" xmlns:xlink="http://www.w3.org/1999/xlink" x="0px" y="0px"
	 viewBox="0 0 30 30" style="enable-background:new 0 0 30 30;" xml:space="preserve">
<style type="text/css">
	.st0{fill:#FF6600;}
</style>
<g id="Layer_2_00000031173527809440925820000008259613863546428333_">
	<g id="Group_4">
		<path id="Path_40" class="st0" d="M14.42604,2.71742c4.05566-0.02566,7.79644,2.18237,9.73378,5.74547
			c2.15763,3.56007,2.07664,8.04338-0.20816,11.5232c-0.51987,0.58934-0.46355,1.48853,0.12579,2.00839
			c0.05259,0.0464,0.10855,0.08884,0.1674,0.12698c1.11606,1.03593,2.16665,2.14124,3.24459,3.21821
			c0.64403,0.64305,0.90106,1.39166,0.23064,2.11094c-0.72808,0.78183-1.3985,0.22966-1.96239-0.31567
			c-1.1532-1.11508-2.30151-2.23799-3.39998-3.40487c-0.38399-0.56783-1.15559-0.71685-1.72341-0.33286
			c-0.0468,0.03165-0.09138,0.06645-0.13344,0.10417c-5.21351,3.3575-12.16168,1.85291-15.51918-3.3606
			S3.12876,7.97912,8.34227,4.62162c0.76767-0.49438,1.59278-0.89328,2.45705-1.18784
			c1.19487-0.30165,2.40438-0.54205,3.62378-0.72026 M14.44851,22.76453c4.51507,0.25507,8.77897-3.78406,8.81318-8.75064
			c-0.01457-4.87008-3.97437-8.80625-8.84445-8.79168c-4.87009,0.01457-8.80625,3.97437-8.79168,8.84445l0,0
			c-0.00598,4.79829,3.87897,8.69292,8.67726,8.6989C14.35139,22.76562,14.39995,22.76528,14.44851,22.76453"/>
	</g>
</g>
</svg>
