<?xml version="1.0" encoding="utf-8"?>
<!-- Generator: Adobe Illustrator 27.4.0, SVG Export Plug-In . SVG Version: 6.00 Build 0)  -->
<svg version="1.1" id="Layer_1" xmlns="http://www.w3.org/2000/svg" xmlns:xlink="http://www.w3.org/1999/xlink" x="0px" y="0px"
	 viewBox="0 0 30 30" style="enable-background:new 0 0 30 30;" xml:space="preserve">
<style type="text/css">
	.st0{fill:#FF6600;}
</style>
<g id="Group_5" transform="translate(57.495 1.377)">
	<path id="Path_42" class="st0" d="M-48.65771,1.02162c1.94585-0.04226,3.83388,0.66291,5.2756,1.9704
		c0.3834,0.50446,1.10316,0.6026,1.60763,0.2192c0.0715-0.05434,0.13637-0.11689,0.19328-0.18636
		c3.29558-2.88867,8.29121-2.6314,11.27261,0.58053c2.93897,3.2432,2.8126,8.22291-0.28708,11.31287
		c-3.47363,3.54461-7.00341,7.03307-10.52153,10.53424c-1.0297,1.0244-1.64942,1.03605-2.65793,0.03284
		c-3.57745-3.55838-7.17396-7.09769-10.68996-10.71963c-2.32282-2.25911-2.98943-5.72751-1.66955-8.68672
		c1.29453-3.3179,3.9514-4.90482,7.47694-5.05525 M-30.59038,8.71467c-0.14915-0.72715-0.37243-1.43709-0.66634-2.11871
		c-1.90684-3.71516-6.1877-4.22048-9.32869-1.14834c-1.74476,1.70556-2.03185,1.72251-3.74906,0
		c-1.07896-1.18587-2.57697-1.90544-4.17704-2.00642c-2.32076-0.0297-4.43039,1.34298-5.3434,3.47681
		c-0.96145,2.12755-0.46375,4.63101,1.23839,6.22902c3.06472,3.12934,6.19194,6.19829,9.26725,9.32234
		c0.64091,0.65044,1.11974,0.65786,1.76489,0c3.07213-3.11981,6.1824-6.20783,9.27467-9.31069
		c1.14469-1.19372,1.76387-2.79602,1.71934-4.4493"/>
</g>
</svg>
